# xmcd
#
# Track frame offsets:
#	150
#	21642
#	43632
#	63405
#	82870
#	104422
#	117677
#	127797
#	152090
#	170025
#	186697
#
# Disc length: 2809 seconds
#
# Revision: 1
# Processed by: cddbd v1.5.2PL0 Copyright (c) Steve Scherf et al.
# Submitted via: EZCDAudioConverter 9.0.5.1
#
DISCID=9b0af70b
DTITLE=坂本龍一 - Heart Beat (Japan VJCP-30093) DE-Magnetic (EZ 9.0-WAV)
DYEAR=1991
DGENRE=Film
TTITLE0=Heartbeat
TTITLE1=Rap The World
TTITLE2=Triste
TTITLE3=Lulu
TTITLE4=High Tide
TTITLE5=Song Lines
TTITLE6=Nuages
TTITLE7=Sayonara
TTITLE8=Borom Gal
TTITLE9=Epilogue
TTITLE10=Tainai Kaiki
EXTD=
EXTT0=
EXTT1=
EXTT2=
EXTT3=
EXTT4=
EXTT5=
EXTT6=
EXTT7=
EXTT8=
EXTT9=
EXTT10=
PLAYORDER=
